<svg width="920" height="260" viewBox="0 0 920 260" fill="none" xmlns="http://www.w3.org/2000/svg">
  <defs>
    <linearGradient id="cardBg" x1="0" y1="0" x2="920" y2="260" gradientUnits="userSpaceOnUse">
      <stop stop-color="#0A0A0D"/>
      <stop offset="1" stop-color="#101116"/>
    </linearGradient>
    <linearGradient id="barBg" x1="0" y1="0" x2="920" y2="0" gradientUnits="userSpaceOnUse">
      <stop stop-color="#180A0E"/>
      <stop offset="1" stop-color="#12080C"/>
    </linearGradient>
    <filter id="softGlow" x="-50%" y="-50%" width="200%" height="200%">
      <feGaussianBlur stdDeviation="6" result="blur"/>
      <feMerge>
        <feMergeNode in="blur"/>
        <feMergeNode in="SourceGraphic"/>
      </feMerge>
    </filter>
    <style>
      .mono { font-family: "JetBrains Mono", "Consolas", monospace; }
      .label { fill: #FF5A74; font-size: 24px; font-weight: 700; }
      .value { fill: #FFC0CA; font-size: 24px; font-weight: 500; }
      .muted { fill: #C26A78; font-size: 22px; font-weight: 500; }
      .small { fill: #F198A6; font-size: 18px; font-weight: 600; letter-spacing: 0.08em; }
    </style>
  </defs>

  <rect x="1" y="1" width="918" height="258" rx="18" fill="url(#cardBg)" stroke="#2E1218" stroke-width="2"/>
  <rect x="1" y="1" width="918" height="42" rx="18" fill="url(#barBg)"/>
  <rect x="1" y="25" width="918" height="18" fill="url(#barBg)"/>

  <text x="28" y="28" class="mono small">signal://profile</text>

  <g opacity="0.9">
    <path d="M840 74L855 96L879 100L863 117L867 141L840 129L813 141L817 117L801 100L825 96L840 74Z" stroke="#FF5A74" stroke-width="2.5" stroke-linecap="round" stroke-linejoin="round" filter="url(#softGlow)"/>
    <path d="M840 87V128" stroke="#FF5A74" stroke-width="2.5" stroke-linecap="round" filter="url(#softGlow)"/>
    <path d="M819.5 97.5L860.5 117.5" stroke="#FF5A74" stroke-width="2.5" stroke-linecap="round" filter="url(#softGlow)"/>
    <path d="M860.5 97.5L819.5 117.5" stroke="#FF5A74" stroke-width="2.5" stroke-linecap="round" filter="url(#softGlow)"/>
  </g>

  <text x="36" y="90" class="mono label">alias</text>
  <text x="180" y="90" class="mono value">AgaresSU</text>

  <text x="36" y="132" class="mono label">stack</text>
  <text x="180" y="132" class="mono value">Python / automation / interfaces / HTML/CSS</text>

  <text x="36" y="174" class="mono label">palette</text>
  <text x="180" y="174" class="mono value">black / graphite / crimson / ember red</text>

  <text x="36" y="216" class="mono label">mission</text>
  <text x="180" y="216" class="mono value">build tools with presence</text>

  <line x1="34" y1="105.5" x2="786" y2="105.5" stroke="#241015"/>
  <line x1="34" y1="147.5" x2="786" y2="147.5" stroke="#241015"/>
  <line x1="34" y1="189.5" x2="786" y2="189.5" stroke="#241015"/>

  <text x="36" y="242" class="mono muted">crimson profile signal card for GitHub README</text>
</svg>
